# xmcd
#
# Track frame offsets:
#	183
#	15150
#	28435
#	47583
#	63918
#	75505
#	88715
#	107185
#	122083
#	132865
#	146493
#	162930
#	175663
#	193545
#	207680
#	225885
#
# Disc length: 3209 seconds
#
# Revision: 0
# Processed by: cddbd v1.5.1PL0 Copyright (c) Steve Scherf et al.
# Submitted via: EasyCDDAExtractor 4.5.0.2
#
DISCID=cd0c8710
DTITLE=x - Von Herz zu Herz
DYEAR=1991
DGENRE=Volksmusik und Schlager
TTITLE0=Kastelruther Spatzen - Gib meinen Träumen ein Zuhause
TTITLE1=Elfi Graf - Am liebsten bin ich deine Frau
TTITLE2=Orig. Nockalm Quintett - Wann kommst du wieder
TTITLE3=Die Kirmesmusikanten - Frühling ins unseren Herzen
TTITLE4=Orig. Naabtal Duo - Heut' scheint der Mond so schön in deine Augen
TTITLE5=Uschi Bauer - Alles wird wieder gut
TTITLE6=Heino - Letzte Rose
TTITLE7=Die Wildecker Herzbuben - Ich fange Deine Tränen mit meinem Herzen auf
TTITLE8=Patrick Lindner - Zwei Herzerln am Birkenbaum
TTITLE9=Zillertaler Schürzenjäger - Lieben heisst von Herzen geben
TTITLE10=Heimat Duo Judith und Mel -Ich will bei dir sein, Schatzilein
TTITLE11=Roland Steinel - Von Herz zu Herz
TTITLE12=Ramonas - Bella Romantika
TTITLE13=Patrizius - Ein Lächeln, das mich traurig macht
TTITLE14=Hauff and Henkler - Heimat
TTITLE15=Die Ranchers - Schenk' dein Herz niemals einem Cowboy
EXTD=CD von I.B.\n
EXTT0=
EXTT1=
EXTT2=
EXTT3=
EXTT4=
EXTT5=
EXTT6=
EXTT7=
EXTT8=
EXTT9=
EXTT10=
EXTT11=
EXTT12=
EXTT13=
EXTT14=
EXTT15=
PLAYORDER=
